# xmcd
#
# Track frame offsets: 
#        182
#        24672
#        37015
#        54525
#        82352
#
# Disc length: 1315 seconds
#
# Revision: 2
# Processed by: cddbd v1.5.2PL0 Copyright (c) Steve Scherf et al.
# Submitted via: ExactAudioCopy v0.99pb4
#
DISCID=41052105
DTITLE=Rose Chronicles - Dead And Gone To Heaven
DYEAR=1993
DGENRE=Ethereal
TTITLE0=Awaiting Eternity
TTITLE1=Echo Of Angels
TTITLE2=Hollow Sea
TTITLE3=Clouding Doubt
TTITLE4=Dead And Gone To Heaven
EXTD=
EXTT0=
EXTT1=
EXTT2=
EXTT3=
EXTT4=
PLAYORDER=
